<?xml version="1.0" standalone="no"?>
<!DOCTYPE svg PUBLIC "-//W3C//DTD SVG 20010904//EN"
 "http://www.w3.org/TR/2001/REC-SVG-20010904/DTD/svg10.dtd">
<svg version="1.0" xmlns="http://www.w3.org/2000/svg"
 width="4603.000000pt" height="1548.000000pt" viewBox="0 0 4603.000000 1548.000000"
 preserveAspectRatio="xMidYMid meet">
<metadata>
Created by potrace 1.15, written by Peter Selinger 2001-2017
</metadata>
<g transform="translate(0.000000,1548.000000) scale(0.100000,-0.100000)"
fill="#000000" stroke="none">
<path d="M9685 14623 c-887 -77 -1624 -448 -2012 -1015 -110 -160 -170 -291
-214 -468 -21 -87 -24 -116 -23 -330 0 -254 10 -344 59 -515 30 -105 96 -248
156 -337 89 -132 263 -280 424 -361 268 -134 674 -210 1370 -257 837 -57 1207
-122 1510 -266 191 -90 367 -245 442 -390 82 -157 114 -350 94 -569 -30 -341
-126 -571 -345 -827 -232 -271 -623 -487 -1101 -607 -854 -214 -1577 -112
-1992 282 -105 100 -184 210 -253 351 -100 205 -138 376 -147 664 -5 158 -8
182 -22 182 -23 0 -383 -49 -386 -52 -1 -2 2 -71 6 -154 12 -236 55 -463 126
-669 255 -736 966 -1134 1923 -1076 784 48 1442 273 1916 655 110 88 275 263
357 377 87 122 198 346 236 477 51 173 64 296 58 547 -3 172 -9 244 -26 329
-78 385 -270 637 -615 805 -319 156 -643 216 -1641 306 -437 39 -754 77 -893
105 -420 87 -695 303 -800 630 -41 128 -56 236 -56 420 -1 203 17 293 83 435
227 484 809 840 1556 952 93 14 181 18 395 18 248 -1 285 -3 380 -23 512 -111
834 -377 990 -817 41 -118 75 -261 90 -379 10 -77 16 -96 29 -96 9 0 94 9 189
21 l172 22 0 66 c-1 205 -79 530 -171 713 -246 487 -660 760 -1279 844 -96 12
-469 17 -585 7z"/>
<path d="M5825 14025 c-385 -51 -709 -94 -721 -96 -13 -3 -526 -575 -1325
-1478 l-1304 -1474 -5 1299 c-5 1188 -6 1299 -21 1302 -9 2 -277 -31 -595 -73
-319 -41 -585 -75 -591 -75 -19 0 -19 -6140 0 -6140 6 0 281 34 610 77 l597
78 0 1030 0 1030 386 430 c212 237 391 436 398 443 10 10 206 -243 991 -1278
862 -1138 981 -1290 1004 -1290 65 1 1454 189 1463 198 7 7 6 16 -3 29 -8 11
-600 753 -1316 1649 -716 896 -1303 1632 -1305 1636 -2 5 555 627 1237 1384
682 757 1240 1384 1240 1393 0 9 -9 17 -20 18 -11 0 -335 -41 -720 -92z"/>
<path d="M44610 11833 c-46 -2 -89 -8 -95 -12 -5 -5 -54 -12 -107 -16 -54 -4
-98 -11 -98 -16 0 -5 -25 -9 -55 -9 -30 0 -55 -4 -55 -10 0 -5 -18 -10 -39
-10 -22 0 -42 -4 -46 -9 -3 -5 -34 -13 -70 -16 -36 -4 -65 -11 -65 -16 0 -5
-16 -9 -35 -9 -19 0 -35 -4 -35 -9 0 -4 -27 -11 -60 -15 -33 -4 -60 -11 -60
-16 0 -6 -13 -10 -30 -10 -16 0 -30 -4 -30 -10 0 -5 -13 -10 -29 -10 -17 0
-32 -4 -35 -9 -4 -5 -29 -12 -56 -16 -28 -4 -50 -11 -50 -16 0 -5 -7 -9 -15
-9 -8 0 -15 -4 -15 -10 0 -5 -11 -10 -24 -10 -14 0 -27 -4 -30 -9 -4 -5 -29
-12 -56 -16 -28 -4 -50 -11 -50 -16 0 -5 -7 -9 -15 -9 -8 0 -15 -4 -15 -10 0
-5 -13 -10 -30 -10 -16 0 -30 -4 -30 -10 0 -5 -18 -13 -40 -16 -22 -4 -40 -10
-40 -15 0 -5 -9 -9 -20 -9 -11 0 -20 -4 -20 -10 0 -5 -18 -13 -40 -16 -22 -4
-40 -10 -40 -15 0 -5 -9 -9 -20 -9 -11 0 -20 -4 -20 -10 0 -5 -7 -10 -15 -10
-8 0 -15 -4 -15 -9 0 -5 -16 -12 -35 -15 -19 -4 -35 -11 -35 -16 0 -6 -9 -10
-20 -10 -11 0 -20 -4 -20 -10 0 -5 -11 -10 -25 -10 -14 0 -25 -4 -25 -10 0 -5
-16 -12 -35 -16 -19 -3 -35 -10 -35 -15 0 -5 -5 -9 -11 -9 -7 0 -19 -8 -28
-19 -9 -10 -31 -22 -49 -25 -17 -4 -32 -11 -32 -15 0 -4 -16 -13 -35 -21 -19
-8 -35 -17 -35 -21 0 -4 -15 -11 -32 -15 -18 -3 -40 -15 -49 -25 -9 -11 -30
-22 -48 -25 -17 -4 -31 -10 -31 -15 0 -5 -6 -9 -13 -9 -7 0 -19 -9 -27 -20 -8
-11 -29 -23 -47 -26 -19 -4 -35 -14 -38 -25 -4 -10 -15 -19 -26 -19 -10 0 -19
-4 -19 -9 0 -5 -11 -12 -25 -15 -14 -4 -25 -11 -25 -16 0 -6 -8 -10 -18 -10
-9 0 -22 -8 -29 -19 -6 -10 -24 -22 -39 -25 -15 -4 -35 -15 -43 -25 -9 -10
-26 -21 -38 -25 -13 -4 -23 -12 -23 -17 0 -5 -9 -9 -19 -9 -10 0 -22 -7 -25
-15 -3 -9 -19 -21 -36 -26 -16 -6 -30 -15 -30 -20 0 -5 -6 -9 -13 -9 -7 0 -19
-9 -27 -20 -8 -11 -20 -20 -27 -20 -7 0 -23 -11 -37 -25 -14 -14 -30 -25 -36
-25 -5 0 -10 -4 -10 -9 0 -5 -10 -13 -22 -17 -12 -3 -32 -17 -45 -30 -13 -13
-29 -24 -36 -24 -7 0 -19 -9 -27 -20 -8 -11 -20 -20 -28 -20 -7 0 -23 -11 -36
-25 -13 -14 -28 -25 -33 -25 -5 0 -19 -11 -31 -25 -12 -14 -27 -25 -32 -25 -6
0 -26 -16 -46 -35 -19 -19 -39 -35 -45 -35 -6 0 -26 -16 -45 -35 -18 -19 -38
-35 -43 -35 -6 0 -25 -16 -44 -35 -19 -19 -37 -35 -41 -35 -4 0 -18 -10 -31
-22 -36 -35 -54 -48 -60 -48 -4 0 -31 -25 -60 -55 -30 -30 -59 -55 -64 -55 -6
0 -33 -22 -60 -50 -28 -27 -54 -50 -59 -50 -5 0 -41 -31 -80 -70 -39 -38 -76
-70 -82 -70 -5 0 -10 -4 -10 -9 0 -5 -9 -13 -20 -16 -11 -4 -18 -10 -16 -14 3
-4 -4 -14 -16 -22 -11 -8 -26 -20 -32 -27 -14 -17 -51 -54 -68 -68 -7 -6 -20
-21 -28 -33 -8 -11 -20 -21 -27 -21 -8 0 -133 -119 -278 -265 -146 -146 -270
-265 -276 -265 -6 0 -9 -8 -6 -19 3 -11 -3 -24 -16 -32 -11 -8 -25 -20 -31
-27 -6 -7 -33 -35 -60 -61 -26 -27 -53 -53 -58 -59 -6 -5 -21 -22 -35 -36 -13
-14 -28 -26 -33 -26 -6 0 -10 -7 -10 -16 0 -9 -34 -51 -75 -92 -41 -41 -75
-79 -75 -84 0 -5 -18 -27 -39 -48 l-39 -40 -151 0 c-94 0 -151 -4 -151 -10 0
-6 -37 -10 -90 -10 -49 0 -90 -4 -90 -9 0 -5 -49 -12 -110 -16 -60 -3 -110
-11 -110 -16 0 -5 -20 -9 -45 -9 -25 0 -45 -4 -45 -10 0 -5 -16 -10 -35 -10
-19 0 -35 -4 -35 -9 0 -5 -31 -12 -70 -16 -38 -4 -70 -11 -70 -16 0 -5 -11 -9
-25 -9 -14 0 -25 -4 -25 -10 0 -5 -27 -12 -60 -16 -33 -4 -60 -11 -60 -15 0
-5 -9 -9 -20 -9 -11 0 -20 -4 -20 -10 0 -5 -11 -10 -25 -10 -14 0 -25 -4 -25
-10 0 -5 -18 -13 -40 -16 -22 -4 -40 -10 -40 -15 0 -5 -9 -9 -20 -9 -11 0 -20
-3 -20 -8 0 -9 -45 -28 -87 -37 -18 -4 -33 -10 -33 -13 0 -4 -15 -14 -32 -21
-18 -8 -39 -21 -46 -28 -7 -7 -20 -13 -28 -13 -8 0 -14 -4 -14 -10 0 -5 -9
-10 -20 -10 -11 0 -20 -4 -20 -9 0 -5 -11 -12 -25 -15 -14 -4 -25 -11 -25 -16
0 -6 -6 -10 -13 -10 -7 0 -19 -9 -27 -20 -8 -10 -28 -22 -44 -26 -17 -4 -42
-19 -56 -34 -14 -16 -35 -31 -47 -35 -12 -3 -25 -15 -28 -26 -4 -10 -13 -19
-22 -19 -9 0 -30 -16 -49 -35 -18 -19 -37 -35 -42 -35 -13 0 -332 -317 -332
-330 0 -5 -16 -25 -35 -44 -19 -20 -35 -40 -35 -45 0 -6 -11 -21 -25 -35 -14
-14 -25 -28 -25 -32 0 -4 -9 -15 -21 -25 -11 -10 -18 -22 -15 -27 3 -4 -4 -15
-15 -22 -10 -8 -19 -20 -19 -27 0 -6 -9 -18 -20 -26 -12 -8 -18 -20 -15 -30 4
-10 -1 -17 -14 -22 -12 -3 -21 -15 -21 -26 0 -10 -4 -19 -9 -19 -5 0 -12 -11
-15 -25 -4 -14 -11 -25 -16 -25 -6 0 -10 -9 -10 -20 0 -11 -4 -20 -10 -20 -5
0 -10 -7 -10 -15 0 -8 -4 -15 -10 -15 -5 0 -12 -16 -16 -35 -3 -19 -10 -35
-15 -35 -5 0 -9 -7 -9 -15 0 -8 -4 -15 -10 -15 -5 0 -10 -9 -10 -20 0 -11 -5
-20 -11 -20 -6 0 -9 -7 -5 -15 3 -8 1 -15 -4 -15 -6 0 -10 -9 -10 -20 0 -11
-4 -20 -10 -20 -5 0 -10 -7 -10 -15 0 -8 -4 -15 -10 -15 -5 0 -10 -13 -10 -30
0 -16 -5 -30 -11 -30 -6 0 -9 -7 -5 -15 3 -8 1 -15 -4 -15 -6 0 -10 -7 -10
-15 0 -8 -4 -15 -10 -15 -5 0 -10 -13 -10 -30 0 -16 -4 -30 -10 -30 -5 0 -10
-11 -10 -25 0 -14 -5 -25 -11 -25 -7 0 -9 -10 -7 -25 3 -14 1 -25 -3 -25 -5 0
-9 -11 -9 -25 0 -14 -4 -25 -10 -25 -5 0 -10 -11 -10 -25 0 -14 -4 -25 -9 -25
-5 0 -13 -29 -16 -65 -4 -36 -11 -65 -16 -65 -5 0 -9 -11 -9 -25 0 -14 -4 -25
-10 -25 -5 0 -10 -16 -10 -35 0 -19 -5 -35 -11 -35 -7 0 -10 -15 -7 -40 2 -22
0 -40 -4 -40 -5 0 -8 -20 -8 -44 0 -25 -5 -46 -12 -48 -17 -6 -18 -340 0 -345
6 -3 12 -9 12 -15 0 -12 26 -38 38 -38 6 0 12 -6 15 -12 3 -10 35 -13 117 -13
82 0 114 3 118 13 2 6 10 12 18 12 8 0 14 4 14 9 0 5 19 11 43 15 48 8 97 27
97 38 0 5 11 8 25 8 14 0 25 4 25 9 0 4 19 11 42 14 24 3 44 11 46 16 2 6 15
11 28 11 13 0 24 5 24 10 0 6 8 10 19 10 10 0 32 7 47 15 16 8 39 15 52 15 12
0 22 5 22 10 0 6 11 10 25 10 14 0 25 5 25 10 0 6 9 10 20 10 11 0 20 4 20 9
0 5 23 12 50 16 28 4 50 11 50 16 0 5 9 9 20 9 11 0 20 5 20 10 0 6 11 10 25
10 14 0 25 4 25 9 0 5 20 12 45 15 25 4 45 11 45 17 0 5 11 9 25 9 14 0 25 4
25 9 0 5 18 11 40 15 22 3 40 11 40 16 0 6 14 10 30 10 17 0 30 5 30 10 0 6
11 10 24 10 13 0 26 5 28 11 2 5 22 13 46 16 23 3 39 9 36 14 -3 5 9 9 25 9
17 0 31 5 31 10 0 6 6 10 14 10 8 0 16 6 18 12 3 7 342 -325 754 -736 412
-412 743 -751 736 -754 -6 -2 -12 -15 -12 -28 0 -13 -4 -24 -10 -24 -5 0 -10
-11 -10 -25 0 -14 -5 -25 -11 -25 -6 0 -9 -7 -5 -15 3 -8 1 -15 -4 -15 -6 0
-10 -13 -10 -30 0 -16 -4 -30 -10 -30 -5 0 -10 -11 -10 -25 0 -14 -4 -25 -10
-25 -5 0 -10 -7 -10 -15 0 -8 -5 -15 -11 -15 -7 0 -9 -10 -7 -25 3 -14 1 -28
-3 -31 -5 -3 -9 -16 -9 -30 0 -13 -4 -24 -10 -24 -5 0 -10 -7 -10 -15 0 -8 -4
-15 -9 -15 -5 0 -13 -25 -16 -55 -4 -30 -11 -55 -16 -55 -5 0 -9 -7 -9 -15 0
-8 -4 -15 -10 -15 -5 0 -10 -11 -10 -25 0 -14 -4 -25 -9 -25 -5 0 -12 -20 -15
-45 -4 -25 -11 -45 -17 -45 -5 0 -9 -11 -9 -25 0 -14 -4 -25 -10 -25 -5 0 -10
-11 -10 -25 0 -14 -5 -25 -11 -25 -6 0 -9 -9 -6 -20 3 -11 1 -20 -4 -20 -5 0
-9 -11 -9 -25 0 -14 -4 -25 -10 -25 -5 0 -10 -11 -10 -25 0 -14 -4 -25 -10
-25 -5 0 -10 -9 -10 -20 0 -11 -5 -20 -11 -20 -7 0 -9 -10 -7 -25 3 -14 1 -25
-3 -25 -5 0 -9 -11 -9 -25 0 -14 -4 -25 -10 -25 -5 0 -10 -9 -10 -20 0 -11 -4
-20 -10 -20 -5 0 -10 -11 -10 -25 0 -14 -5 -25 -11 -25 -7 0 -9 -10 -5 -25 4
-14 2 -25 -4 -25 -5 0 -10 -7 -10 -15 0 -8 -4 -15 -10 -15 -5 0 -10 -13 -10
-29 0 -16 -6 -31 -12 -33 -18 -6 -18 -210 0 -215 6 -3 12 -13 12 -23 0 -11 10
-22 23 -26 12 -3 30 -13 39 -22 15 -13 44 -14 189 -9 95 3 175 10 178 15 3 5
41 13 84 17 42 3 77 11 77 16 0 5 16 9 35 9 19 0 35 5 35 10 0 6 16 10 35 10
19 0 35 4 35 9 0 5 23 12 50 16 28 4 50 11 50 16 0 5 11 9 25 9 14 0 25 4 25
9 0 5 25 13 55 16 30 4 55 11 55 16 0 5 11 9 25 9 14 0 25 5 25 10 0 6 7 10
15 10 8 0 15 4 15 9 0 5 20 12 45 15 25 4 45 11 45 17 0 5 11 9 25 9 14 0 25
5 25 10 0 6 9 10 20 10 11 0 20 4 20 10 0 5 16 12 35 16 19 3 35 10 35 15 0 5
7 9 15 9 8 0 15 3 15 8 0 8 73 42 90 42 6 0 10 5 10 10 0 6 9 10 20 10 11 0
20 4 20 10 0 5 11 12 25 16 14 3 25 10 25 15 0 5 9 9 19 9 11 0 22 9 26 19 3
11 19 21 38 25 18 3 39 15 47 26 8 11 19 20 25 20 6 0 22 11 37 25 15 14 31
25 35 25 5 0 15 9 23 20 8 11 21 20 30 20 8 0 29 16 45 35 17 19 35 35 42 35
7 0 39 27 72 60 33 33 65 60 70 60 13 0 151 140 151 153 0 5 25 34 56 64 31
29 54 57 51 60 -8 7 51 63 65 63 6 0 8 8 5 19 -2 11 3 24 14 32 11 7 19 18 19
23 0 5 9 17 21 27 11 10 18 22 15 27 -3 4 4 15 15 22 10 8 19 20 19 27 0 7 5
13 11 13 5 0 8 4 5 9 -3 5 1 11 9 15 8 3 12 12 9 21 -3 8 -1 15 5 15 6 0 11 6
11 13 0 7 9 19 20 27 11 8 23 29 26 47 3 18 10 33 15 33 5 0 9 7 9 15 0 8 5
15 10 15 6 0 10 9 10 20 0 11 5 20 11 20 6 0 9 7 5 15 -3 8 -1 15 4 15 6 0 10
9 10 20 0 11 5 20 10 20 6 0 10 7 10 15 0 8 5 15 10 15 6 0 10 11 10 25 0 14
5 25 11 25 6 0 8 9 4 20 -4 11 -2 20 4 20 6 0 11 7 11 15 0 8 5 15 10 15 6 0
10 11 10 25 0 14 5 25 10 25 6 0 10 14 10 30 0 17 5 30 11 30 7 0 9 10 5 25
-4 14 -2 25 4 25 5 0 10 11 10 25 0 14 5 25 10 25 6 0 10 11 10 25 0 14 4 25
9 25 5 0 12 32 16 70 4 39 11 70 16 70 5 0 9 16 9 35 0 19 5 35 10 35 6 0 10
20 10 45 0 26 5 45 11 45 7 0 10 18 7 50 -1 28 0 50 5 50 4 0 7 27 7 60 0 33
4 60 10 60 6 0 10 33 10 80 0 47 4 80 10 80 6 0 10 64 10 173 0 161 1 174 20
190 11 9 24 17 29 17 5 0 40 32 79 70 39 39 73 70 77 70 7 0 29 18 48 38 7 7
23 23 36 36 39 39 42 43 68 70 13 14 29 26 35 26 6 0 9 3 5 6 -8 8 18 34 33
34 16 0 710 698 710 714 0 8 9 18 20 21 11 3 20 10 20 15 0 12 49 60 61 60 6
0 8 4 5 8 -3 5 4 15 16 23 29 20 68 63 68 75 0 3 30 35 66 71 36 35 63 67 60
70 -3 3 19 30 49 59 30 29 55 58 55 63 0 14 68 81 81 81 6 0 9 8 6 19 -3 11 3
24 15 32 40 28 61 49 55 55 -3 4 12 24 34 46 22 22 38 42 35 45 -3 3 10 21 29
39 19 19 35 39 35 45 0 13 38 49 52 49 5 0 8 8 6 18 -4 16 26 52 44 52 4 0 8
8 8 19 0 10 11 27 25 37 14 10 25 26 25 35 0 9 11 25 25 35 14 10 25 26 25 36
0 9 8 19 19 23 10 3 21 18 24 34 4 18 15 32 27 36 11 3 20 15 20 26 0 11 7 22
15 25 8 4 15 13 15 21 0 9 8 23 19 32 10 9 21 26 25 39 4 12 12 22 17 22 5 0
9 6 9 13 0 7 9 19 20 27 11 8 20 23 20 33 0 9 7 20 15 23 8 4 15 14 15 24 0
10 7 21 15 24 9 3 21 19 26 36 6 16 15 30 20 30 5 0 9 7 9 15 0 8 5 15 10 15
6 0 10 9 10 20 0 11 7 23 15 26 8 4 15 14 15 23 0 9 9 23 20 31 11 8 20 20 20
27 0 7 5 13 11 13 6 0 9 6 6 13 -3 8 3 20 14 28 10 7 19 21 19 31 0 10 5 18
10 18 6 0 10 7 10 15 0 8 5 15 11 15 6 0 8 8 4 19 -4 14 0 21 15 26 11 3 20
15 20 26 0 10 4 19 10 19 5 0 12 16 16 35 3 19 10 35 15 35 5 0 9 7 9 15 0 8
5 15 10 15 6 0 10 9 10 20 0 11 5 20 11 20 6 0 9 6 6 13 -3 8 3 20 14 28 10 7
19 19 19 26 0 7 5 13 10 13 6 0 10 9 10 20 0 11 5 20 11 20 6 0 9 7 5 15 -3 8
-1 15 4 15 6 0 10 9 10 20 0 11 5 20 10 20 6 0 10 7 10 15 0 8 5 15 10 15 6 0
10 11 10 24 0 14 5 28 11 31 6 4 8 13 5 21 -3 8 -1 14 4 14 6 0 10 7 10 15 0
8 5 15 10 15 6 0 10 9 10 20 0 11 3 20 8 20 12 0 33 56 26 74 -3 9 -1 16 5 16
6 0 11 7 11 15 0 8 3 15 8 15 9 0 28 45 37 88 4 17 11 32 16 32 5 0 9 11 9 25
0 14 5 25 10 25 6 0 10 9 10 20 0 11 5 20 11 20 7 0 9 10 7 25 -3 14 -1 25 3
25 5 0 9 11 9 25 0 14 5 25 10 25 6 0 10 9 10 20 0 11 5 20 10 20 6 0 10 11
10 25 0 14 5 25 11 25 7 0 9 10 7 25 -3 14 -1 25 3 25 5 0 9 11 9 25 0 14 5
25 10 25 6 0 10 14 10 30 0 17 5 30 10 30 6 0 10 13 10 29 0 17 5 33 11 37 6
3 8 17 5 30 -4 14 -2 24 4 24 5 0 10 16 10 35 0 19 5 35 10 35 6 0 10 16 10
35 0 19 4 35 9 35 5 0 13 29 16 65 4 36 11 65 16 65 5 0 9 20 9 45 0 25 5 45
10 45 6 0 10 20 10 45 0 26 5 45 11 45 7 0 10 18 7 50 -1 28 0 50 5 50 4 0 7
27 7 59 0 35 5 61 11 63 8 3 12 97 13 334 l1 330 -35 34 -35 35 -240 1 c-132
0 -278 -1 -325 -3z m-2210 -1863 c0 -5 23 -10 50 -10 28 0 50 -4 50 -10 0 -5
16 -10 35 -10 19 0 35 -4 35 -9 0 -5 25 -12 55 -16 30 -3 55 -11 55 -16 0 -5
11 -9 25 -9 14 0 25 -4 25 -10 0 -5 7 -10 15 -10 8 0 15 -4 15 -9 0 -5 15 -12
33 -15 18 -3 39 -15 47 -26 8 -11 22 -20 31 -20 9 0 19 -7 23 -15 3 -8 14 -15
25 -15 11 0 22 -9 26 -19 3 -11 15 -23 26 -26 10 -4 19 -11 19 -16 0 -5 5 -9
11 -9 11 0 109 -93 109 -104 0 -4 10 -18 23 -31 37 -40 47 -54 47 -65 0 -5 4
-10 9 -10 5 0 13 -10 17 -22 4 -13 14 -30 24 -38 19 -17 34 -49 31 -67 -1 -7
3 -13 9 -13 5 0 10 -7 10 -15 0 -8 5 -15 10 -15 6 0 10 -13 10 -30 0 -16 5
-30 10 -30 6 0 10 -11 10 -25 0 -14 4 -25 9 -25 4 0 6 -11 3 -25 -2 -15 0 -25
7 -25 6 0 11 -16 11 -35 0 -19 5 -35 10 -35 6 0 10 -22 10 -50 0 -27 5 -50 10
-50 6 0 10 -42 10 -105 0 -63 -4 -105 -10 -105 -6 0 -10 -27 -10 -60 0 -33 -4
-60 -10 -60 -5 0 -10 -16 -10 -35 0 -19 -5 -35 -11 -35 -7 0 -9 -10 -7 -25 3
-14 1 -25 -3 -25 -5 0 -9 -13 -9 -30 0 -16 -4 -30 -10 -30 -5 0 -10 -7 -10
-15 0 -8 -4 -15 -10 -15 -5 0 -10 -9 -10 -20 0 -11 -5 -20 -11 -20 -6 0 -9 -7
-5 -15 3 -8 1 -15 -4 -15 -6 0 -10 -7 -10 -15 0 -8 -4 -15 -10 -15 -5 0 -10
-9 -10 -19 0 -11 -10 -27 -22 -35 -12 -9 -19 -18 -15 -22 3 -4 -7 -19 -23 -34
-17 -16 -30 -33 -30 -38 0 -13 -158 -172 -170 -172 -5 0 -20 -11 -34 -25 -14
-14 -29 -25 -34 -25 -5 0 -15 -7 -22 -15 -7 -8 -21 -15 -31 -15 -11 0 -19 -4
-19 -10 0 -5 -7 -10 -15 -10 -8 0 -15 -4 -15 -10 0 -5 -9 -10 -20 -10 -11 0
-20 -4 -20 -10 0 -5 -16 -12 -35 -16 -19 -3 -35 -10 -35 -15 0 -5 -11 -9 -25
-9 -14 0 -25 -4 -25 -10 0 -5 -11 -10 -24 -10 -13 0 -26 -5 -28 -11 -2 -5 -38
-13 -81 -16 -42 -3 -77 -10 -77 -14 0 -5 -67 -9 -150 -9 -82 0 -150 4 -150 9
0 4 -28 11 -62 15 -34 3 -67 11 -72 16 -6 6 -23 10 -38 10 -15 0 -28 5 -28 10
0 6 -9 10 -20 10 -11 0 -20 4 -20 10 0 5 -18 13 -41 16 -23 4 -46 15 -52 25
-7 11 -20 19 -29 19 -10 0 -18 4 -18 9 0 5 -11 12 -25 15 -14 4 -25 11 -25 16
0 6 -6 10 -13 10 -7 0 -19 9 -27 20 -8 11 -20 20 -28 20 -17 0 -213 195 -205
204 3 3 -4 14 -15 25 -12 10 -22 22 -22 26 0 4 -8 15 -17 24 -10 9 -18 21 -19
26 -3 23 -17 55 -25 55 -5 0 -9 7 -9 15 0 8 -4 15 -10 15 -5 0 -10 9 -10 20 0
11 -4 20 -10 20 -5 0 -7 7 -4 15 4 8 1 15 -5 15 -6 0 -11 14 -11 30 0 17 -4
30 -10 30 -5 0 -10 11 -10 25 0 14 -4 25 -9 25 -5 0 -12 34 -16 75 -4 41 -11
75 -16 75 -5 0 -9 59 -9 130 0 72 4 130 9 130 4 0 11 39 15 88 3 48 11 89 16
90 6 2 10 15 10 28 0 13 5 24 10 24 6 0 10 11 10 25 0 14 4 25 9 25 5 0 12 16
15 35 4 19 11 35 16 35 6 0 10 9 10 20 0 11 4 20 9 20 5 0 12 11 15 25 4 14
11 25 16 25 6 0 10 7 10 15 0 8 5 15 10 15 6 0 10 7 10 15 0 9 16 31 35 49 19
19 35 39 35 45 0 6 5 11 12 11 6 0 8 3 5 6 -8 8 50 64 66 64 6 0 8 3 4 6 -7 7
38 54 52 54 6 0 21 11 34 24 13 13 33 27 45 30 12 4 22 12 22 17 0 5 9 9 19 9
11 0 22 9 26 19 3 12 19 21 40 25 19 4 35 11 35 16 0 6 9 10 20 10 11 0 20 5
20 10 0 6 11 10 24 10 13 0 26 5 28 11 2 6 25 13 51 16 26 3 47 10 47 14 0 5
16 9 35 9 19 0 35 5 35 10 0 6 25 10 55 10 30 0 55 5 55 10 0 6 42 10 105 10
63 0 105 -4 105 -10z"/>
<path d="M42120 9620 c0 -5 -16 -10 -35 -10 -19 0 -35 -4 -35 -9 0 -5 -18 -11
-40 -15 -22 -3 -40 -11 -40 -16 0 -6 -9 -10 -20 -10 -11 0 -20 -4 -20 -10 0
-5 -6 -10 -14 -10 -7 0 -19 -7 -26 -15 -7 -8 -21 -15 -31 -15 -10 0 -20 -9
-24 -19 -3 -11 -15 -23 -27 -27 -24 -7 -88 -68 -88 -83 0 -6 -11 -21 -25 -35
-14 -14 -25 -28 -25 -32 0 -4 -9 -15 -21 -25 -11 -10 -18 -23 -14 -28 3 -6 1
-11 -4 -11 -6 0 -11 -9 -11 -20 0 -11 -4 -20 -10 -20 -5 0 -10 -7 -10 -15 0
-8 -4 -15 -10 -15 -5 0 -10 -11 -10 -24 0 -14 -5 -28 -11 -32 -6 -3 -8 -17 -5
-30 4 -14 2 -24 -4 -24 -5 0 -10 -22 -10 -50 0 -27 -4 -50 -10 -50 -6 0 -10
-35 -10 -85 0 -50 4 -85 10 -85 6 0 10 -25 10 -55 0 -30 4 -55 8 -55 4 0 6
-16 4 -35 -3 -21 0 -35 7 -35 6 0 11 -7 11 -15 0 -8 5 -15 10 -15 6 0 10 -9
10 -20 0 -11 5 -20 10 -20 6 0 10 -11 10 -25 0 -14 4 -25 9 -25 5 0 13 -10 17
-22 4 -13 15 -30 25 -39 11 -9 19 -20 19 -25 0 -11 48 -64 58 -64 4 0 16 -13
27 -30 11 -16 32 -34 48 -39 15 -6 30 -17 33 -26 3 -8 14 -15 24 -15 10 0 20
-7 24 -15 3 -8 15 -15 26 -15 11 0 20 -4 20 -10 0 -5 7 -10 15 -10 8 0 15 -4
15 -10 0 -5 14 -10 31 -10 16 0 28 -4 25 -9 -3 -5 30 -12 74 -16 44 -4 80 -11
80 -16 0 -12 197 -12 204 0 3 5 40 12 81 16 41 4 75 11 75 16 0 5 9 9 20 9 11
0 20 5 20 10 0 6 11 10 24 10 13 0 26 7 30 15 3 8 15 15 26 15 11 0 20 5 20
10 0 6 5 10 10 10 6 0 22 11 36 25 14 14 29 25 35 25 10 0 109 96 109 106 0 3
6 12 13 19 29 33 37 45 37 55 0 5 5 10 10 10 6 0 10 9 10 20 0 11 5 20 10 20
6 0 10 7 10 15 0 8 5 15 11 15 6 0 9 9 6 20 -3 11 -1 20 4 20 5 0 9 11 9 25 0
14 5 25 10 25 6 0 10 16 10 35 0 19 5 35 10 35 6 0 10 27 10 60 0 33 4 60 10
60 6 0 10 23 10 50 0 28 -4 50 -10 50 -6 0 -10 28 -10 65 0 37 -4 65 -10 65
-5 0 -10 16 -10 35 0 19 -4 35 -10 35 -5 0 -10 11 -10 25 0 14 -4 25 -10 25
-5 0 -7 7 -4 15 4 8 1 15 -5 15 -6 0 -11 9 -11 20 0 11 -4 20 -10 20 -5 0 -10
7 -10 15 0 8 -4 15 -9 15 -5 0 -13 10 -16 21 -4 12 -23 37 -41 56 -19 18 -34
38 -34 44 0 14 -26 39 -39 39 -6 0 -26 15 -44 34 -18 18 -43 36 -55 40 -12 4
-22 11 -22 15 0 4 -16 13 -35 21 -19 8 -35 17 -35 21 0 4 -20 10 -45 13 -25 4
-45 11 -45 17 0 5 -16 9 -35 9 -19 0 -35 5 -35 10 0 6 -63 10 -170 10 -107 0
-170 -4 -170 -10z"/>
<path d="M32918 9436 l-1938 -181 0 -3332 c0 -3168 1 -3333 18 -3333 9 -1 902
81 1985 182 l1967 182 0 213 0 213 -47 -1 c-27 0 -806 -71 -1733 -157 l-1685
-157 -3 1389 c-1 764 -1 1391 1 1393 2 1 719 69 1593 151 l1589 147 3 218 2
217 -37 -5 c-21 -3 -720 -68 -1553 -145 -833 -77 -1534 -142 -1557 -145 l-43
-6 0 1295 c0 1030 3 1296 13 1296 6 1 773 72 1702 158 l1690 158 0 214 c0 184
-2 215 -15 216 -8 1 -887 -80 -1952 -180z"/>
<path d="M28030 9063 c-93 -6 -379 -43 -490 -64 -1473 -279 -2423 -1312 -2659
-2889 -39 -266 -46 -375 -46 -775 0 -397 6 -494 46 -774 106 -735 362 -1294
776 -1692 353 -340 790 -543 1348 -626 171 -26 753 -25 970 0 598 71 989 195
1435 458 58 34 106 63 108 64 1 1 -8 38 -22 81 -13 43 -41 132 -60 197 -21 65
-42 117 -49 117 -6 0 -73 -31 -147 -69 -432 -220 -785 -333 -1235 -393 -195
-26 -610 -31 -765 -10 -656 93 -1119 371 -1455 877 -348 522 -508 1278 -455
2145 58 949 340 1644 873 2156 196 188 377 314 632 439 393 193 837 297 1330
312 348 11 686 -39 1058 -154 64 -20 119 -34 122 -31 10 9 118 408 113 414
-12 11 -268 94 -383 123 -164 41 -367 77 -505 90 -105 10 -407 12 -540 4z"/>
<path d="M21247 8350 c-98 -10 -179 -19 -181 -21 -15 -22 -2522 -6886 -2516
-6892 4 -5 128 3 276 18 462 44 5214 485 5230 485 2 0 4 4 4 10 0 5 -545 1394
-1211 3087 -666 1693 -1234 3135 -1261 3206 l-50 127 -56 -1 c-32 -1 -137 -9
-235 -19z"/>
<path d="M16295 7884 c-22 -2 -518 -48 -1102 -101 l-1063 -98 0 -3332 0 -3333
28 0 c15 0 122 9 237 20 116 11 216 20 222 20 10 0 13 275 15 1322 l3 1323
775 72 c806 74 906 86 1099 129 252 56 578 186 781 311 266 164 495 386 660
638 105 161 218 423 270 624 50 195 64 324 64 586 1 269 -11 384 -60 577 -173
689 -702 1132 -1464 1228 -91 11 -398 21 -465 14z m425 -450 c702 -96 1090
-594 1090 -1399 0 -408 -101 -756 -301 -1040 -82 -116 -249 -282 -369 -367
-229 -163 -536 -280 -865 -332 -86 -13 -1571 -156 -1625 -156 -20 0 -20 14
-20 1580 0 869 2 1580 4 1580 3 0 366 34 808 75 442 41 835 76 873 78 110 5
290 -3 405 -19z"/>
<path d="M10780 7464 c-805 -43 -1376 -254 -1770 -654 -304 -309 -451 -698
-452 -1200 0 -354 62 -582 229 -834 93 -141 273 -319 418 -415 121 -80 343
-192 475 -240 250 -90 686 -207 1285 -346 325 -75 575 -169 732 -276 69 -47
198 -174 249 -246 128 -178 182 -408 171 -723 -11 -308 -78 -528 -231 -765
-280 -431 -781 -672 -1531 -735 -187 -16 -565 -14 -715 4 -243 29 -530 99
-770 186 -63 23 -126 43 -139 44 -23 1 -29 -12 -93 -189 -37 -104 -71 -198
-74 -207 -6 -21 50 -48 226 -109 349 -121 617 -168 1002 -176 725 -15 1298 90
1758 323 561 283 916 756 1020 1354 27 159 37 434 21 585 -33 305 -115 506
-292 719 -125 149 -269 260 -489 374 -239 124 -444 190 -1165 372 -562 142
-731 195 -940 295 -295 142 -496 334 -593 567 -52 126 -75 259 -75 448 -1 305
65 533 219 766 226 342 603 536 1204 619 158 22 551 31 720 16 285 -25 534
-73 763 -148 76 -25 140 -43 142 -41 13 12 134 373 128 378 -16 15 -209 82
-345 120 -178 51 -400 96 -558 114 -130 15 -418 26 -530 20z"/>
<path d="M3762 5387 l-3142 -412 0 -234 0 -233 43 6 c122 17 6250 816 6262
816 13 0 15 36 15 235 0 218 -1 235 -17 234 -10 -1 -1432 -186 -3161 -412z"/>
<path d="M37538 5543 c-16 -2 -28 -9 -28 -14 0 -5 -11 -9 -25 -9 -14 0 -25 -4
-25 -10 0 -5 -7 -10 -17 -10 -22 0 -93 -32 -93 -42 0 -4 -7 -8 -15 -8 -8 0
-15 -4 -15 -10 0 -5 -7 -10 -15 -10 -9 0 -31 -16 -49 -35 -19 -19 -38 -35 -43
-35 -13 0 -143 -126 -143 -139 0 -6 -16 -26 -35 -46 -20 -19 -34 -39 -31 -43
3 -5 -4 -15 -15 -22 -10 -8 -19 -19 -19 -24 0 -5 -9 -17 -21 -27 -11 -10 -18
-23 -14 -28 3 -6 1 -11 -4 -11 -6 0 -11 -8 -11 -18 0 -10 -9 -24 -20 -32 -11
-8 -20 -20 -20 -27 0 -7 -5 -13 -11 -13 -6 0 -8 -9 -4 -20 4 -11 2 -20 -4 -20
-6 0 -11 -7 -11 -15 0 -8 -4 -15 -10 -15 -5 0 -10 -9 -10 -20 0 -11 -4 -20
-10 -20 -5 0 -10 -7 -10 -15 0 -8 -5 -15 -11 -15 -6 0 -9 -7 -5 -15 3 -8 1
-15 -4 -15 -6 0 -10 -9 -10 -20 0 -11 -4 -20 -10 -20 -5 0 -10 -7 -10 -15 0
-8 -4 -15 -9 -15 -4 0 -11 -19 -14 -42 -3 -24 -11 -44 -16 -46 -6 -2 -11 -12
-11 -23 0 -10 -4 -19 -10 -19 -5 0 -10 -11 -10 -25 0 -14 -5 -25 -11 -25 -7 0
-9 -10 -7 -25 3 -14 1 -25 -3 -25 -5 0 -9 -7 -9 -15 0 -8 -4 -15 -10 -15 -5 0
-10 -13 -10 -30 0 -16 -4 -30 -10 -30 -5 0 -10 -11 -10 -25 0 -14 -5 -25 -11
-25 -7 0 -9 -10 -7 -25 3 -14 1 -25 -3 -25 -5 0 -9 -16 -9 -35 0 -19 -4 -35
-10 -35 -5 0 -10 -11 -10 -25 0 -14 -4 -25 -10 -25 -5 0 -10 -16 -10 -35 0
-19 -5 -35 -11 -35 -7 0 -9 -10 -7 -25 3 -14 1 -25 -3 -25 -5 0 -9 -16 -9 -35
0 -19 -4 -35 -10 -35 -5 0 -10 -16 -10 -35 0 -19 -4 -35 -9 -35 -5 0 -13 -36
-17 -80 -3 -44 -11 -80 -15 -80 -5 0 -9 -18 -9 -39 0 -22 -4 -43 -10 -46 -5
-3 -10 -24 -10 -46 0 -22 -5 -39 -11 -39 -7 0 -10 -17 -7 -45 2 -25 0 -45 -4
-45 -5 0 -8 -22 -8 -49 0 -27 -5 -51 -11 -53 -16 -5 -18 -300 -1 -305 6 -3 12
-11 12 -20 0 -8 14 -29 32 -46 l32 -32 179 1 c116 1 182 5 186 12 4 6 48 14
99 18 50 4 92 11 92 15 0 5 18 9 39 9 22 0 43 5 46 10 3 6 19 10 35 10 16 0
31 4 34 9 3 5 40 12 81 16 41 4 75 11 75 16 0 5 16 9 35 9 19 0 35 4 35 9 0 4
27 11 60 15 33 4 60 11 60 16 0 6 16 10 35 10 19 0 35 5 35 10 0 6 11 10 25
10 14 0 25 4 25 9 0 5 25 13 55 16 30 4 55 11 55 16 0 5 11 9 25 9 14 0 25 5
25 10 0 6 11 10 25 10 14 0 25 4 25 9 0 5 20 12 45 15 25 4 45 11 45 17 0 5
11 9 25 9 14 0 25 3 25 8 0 9 45 28 88 37 17 4 32 10 32 13 0 9 76 42 96 42 9
0 24 8 33 18 17 19 81 52 100 52 6 0 11 5 11 10 0 6 9 10 20 10 11 0 20 5 20
10 0 6 5 10 11 10 6 0 17 7 25 15 9 8 25 15 36 15 12 0 19 3 15 6 -8 8 18 34
33 34 6 0 21 11 34 25 13 14 28 25 35 25 6 0 30 20 53 44 22 25 52 47 65 51
12 3 23 10 23 15 0 5 11 20 25 34 14 14 25 28 25 32 0 4 16 22 35 41 19 19 35
39 35 45 0 6 9 19 21 29 11 10 18 23 14 28 -3 6 -1 11 4 11 6 0 11 7 11 15 0
8 5 15 10 15 6 0 10 9 10 20 0 11 5 20 10 20 6 0 10 11 10 25 0 14 5 25 11 25
7 0 9 10 7 25 -3 14 -1 25 3 25 5 0 9 16 9 35 0 19 5 35 10 35 6 0 10 53 10
140 0 87 -4 140 -10 140 -5 0 -10 16 -10 35 0 19 -4 35 -8 35 -4 0 -6 16 -4
35 3 21 0 35 -7 35 -6 0 -11 7 -11 15 0 8 -4 15 -10 15 -5 0 -10 14 -10 30 0
17 -4 30 -10 30 -5 0 -10 7 -10 15 0 8 -4 15 -10 15 -5 0 -7 6 -4 14 3 9 -3
20 -15 28 -12 7 -21 21 -21 30 0 10 -4 18 -10 18 -5 0 -10 7 -10 15 0 8 -4 15
-9 15 -5 0 -13 10 -17 22 -3 12 -17 32 -30 45 -13 13 -24 29 -24 34 0 6 -20
30 -45 53 -25 24 -45 48 -45 54 0 13 -88 102 -101 102 -5 0 -41 32 -80 70 -38
39 -75 70 -82 70 -7 0 -21 11 -31 25 -10 14 -26 25 -34 25 -14 0 -52 36 -52
50 0 4 -15 11 -33 14 -18 3 -39 15 -47 26 -8 11 -23 20 -33 20 -10 0 -16 4
-12 9 3 6 -15 13 -40 16 -25 4 -45 11 -45 16 0 5 -9 9 -20 9 -11 0 -20 5 -20
10 0 6 -11 10 -24 10 -13 0 -26 5 -28 12 -3 9 -57 13 -204 14 -109 1 -211 0
-226 -3z"/>
</g>
</svg>
