<?xml version="1.0" standalone="no"?>
<!DOCTYPE svg PUBLIC "-//W3C//DTD SVG 20010904//EN"
 "http://www.w3.org/TR/2001/REC-SVG-20010904/DTD/svg10.dtd">
<svg version="1.0" xmlns="http://www.w3.org/2000/svg"
 width="984.000000pt" height="297.000000pt" viewBox="0 0 984.000000 297.000000"
 preserveAspectRatio="xMidYMid meet">
<metadata>
Created by potrace 1.15, written by Peter Selinger 2001-2017
</metadata>
<g transform="translate(0.000000,297.000000) scale(0.100000,-0.100000)"
fill="#000000" stroke="none">
<path d="M1298 2393 c-40 -45 -28 -105 24 -127 l32 -14 -37 -37 c-21 -21 -36
-39 -35 -40 2 -1 17 -7 35 -13 30 -10 34 -8 71 32 64 69 78 151 35 198 -22 25
-104 25 -125 1z"/>
<path d="M1675 2378 c-81 -28 -125 -89 -125 -173 0 -97 40 -131 201 -175 123
-34 154 -49 164 -80 19 -58 -59 -109 -147 -96 -59 9 -94 37 -109 87 l-12 39
-64 0 -63 0 6 -42 c10 -65 48 -124 102 -155 44 -26 54 -28 162 -28 107 0 118
2 162 27 82 49 116 138 83 223 -24 65 -64 90 -194 124 -134 35 -161 51 -161
90 0 45 32 66 102 66 55 0 62 -3 89 -33 16 -18 29 -41 29 -52 0 -18 7 -20 65
-20 64 0 65 0 65 28 -1 70 -62 145 -139 171 -42 14 -175 13 -216 -1z"/>
<path d="M5561 2373 c-24 -9 -64 -35 -88 -60 -61 -60 -85 -120 -90 -223 -6
-102 16 -177 71 -245 53 -64 112 -89 221 -93 86 -4 93 -2 154 30 215 112 216
464 2 576 -56 29 -71 32 -144 31 -47 0 -101 -7 -126 -16z m204 -111 c128 -68
125 -330 -5 -397 -37 -19 -113 -19 -149 0 -65 33 -101 104 -101 200 0 74 17
123 59 168 51 54 128 66 196 29z"/>
<path d="M6515 2378 c-81 -28 -125 -89 -125 -173 0 -97 40 -131 201 -175 123
-34 154 -49 164 -80 19 -58 -59 -109 -147 -96 -59 9 -94 37 -109 87 l-12 39
-64 0 -63 0 6 -42 c10 -65 48 -124 102 -155 44 -26 54 -28 162 -28 107 0 118
2 162 27 82 49 116 138 83 223 -24 65 -64 90 -194 124 -134 35 -161 51 -161
90 0 45 32 66 102 66 55 0 62 -3 89 -33 16 -18 29 -41 29 -52 0 -18 7 -20 65
-20 64 0 65 0 65 28 -1 70 -62 145 -139 171 -42 14 -175 13 -216 -1z"/>
<path d="M510 2060 l0 -310 65 0 65 0 0 310 0 310 -65 0 -65 0 0 -310z"/>
<path d="M700 2315 l0 -55 100 0 100 0 0 -255 0 -255 65 0 65 0 0 255 0 255
95 0 95 0 0 55 0 55 -260 0 -260 0 0 -55z"/>
<path d="M2400 2315 l0 -55 100 0 100 0 0 -255 0 -255 65 0 65 0 0 255 0 255
95 0 95 0 0 55 0 55 -260 0 -260 0 0 -55z"/>
<path d="M2980 2060 l0 -310 65 0 65 0 0 310 0 310 -65 0 -65 0 0 -310z"/>
<path d="M3230 2060 l0 -310 60 0 60 0 2 208 3 207 75 -205 75 -205 54 0 54 0
78 210 78 210 1 -212 0 -213 60 0 60 0 0 310 0 311 -87 -3 -86 -3 -76 -212
c-41 -117 -78 -210 -82 -205 -4 4 -41 99 -81 212 l-74 205 -87 3 -87 3 0 -311z"/>
<path d="M4000 2060 l0 -310 235 0 235 0 0 60 0 60 -170 0 -170 0 0 75 0 75
155 0 155 0 0 55 0 55 -155 0 -155 0 0 65 0 65 170 0 170 0 0 55 0 55 -235 0
-235 0 0 -310z"/>
<path d="M4820 2315 l0 -55 100 0 100 0 0 -255 0 -255 65 0 65 0 0 255 0 255
95 0 95 0 0 55 0 55 -260 0 -260 0 0 -55z"/>
<path d="M6970 2060 l0 -310 65 0 65 0 0 140 0 140 130 0 130 0 0 -135 0 -135
65 0 65 0 0 305 0 305 -65 0 -65 0 0 -115 0 -115 -130 0 -130 0 0 115 0 115
-65 0 -65 0 0 -310z"/>
<path d="M7647 2073 c-64 -164 -117 -302 -117 -306 0 -4 30 -7 67 -5 l67 3 25
72 26 73 116 0 117 0 27 -75 28 -75 69 0 c62 0 69 2 64 18 -4 9 -57 145 -119
302 l-113 285 -70 3 -69 3 -118 -298z m223 52 c18 -49 35 -96 37 -102 4 -10
-14 -13 -71 -13 -42 0 -76 4 -76 9 0 6 12 43 26 83 40 112 44 121 48 117 2 -2
18 -44 36 -94z"/>
<path d="M8190 2066 l0 -306 65 0 65 0 0 120 0 120 96 0 c52 0 104 -5 116 -11
27 -14 48 -68 48 -122 0 -25 3 -59 6 -76 l7 -31 74 0 74 0 -17 31 c-9 18 -19
69 -24 115 -7 82 -26 129 -55 140 -11 4 -7 12 15 30 37 31 54 83 48 146 -5 52
-27 89 -72 122 -25 19 -44 21 -237 24 l-209 3 0 -305z m365 179 c32 -31 32
-75 2 -111 -22 -26 -29 -27 -130 -32 l-107 -5 0 87 0 86 105 0 c99 0 107 -2
130 -25z"/>
<path d="M8800 2065 l0 -305 235 0 235 0 0 55 0 55 -170 0 -170 0 0 75 0 75
155 0 155 0 0 55 0 55 -155 0 -155 0 0 65 0 65 170 0 170 0 0 55 0 55 -235 0
-235 0 0 -305z"/>
<path d="M1925 1581 c-89 -41 -140 -133 -140 -251 0 -170 94 -269 254 -270 61
0 82 5 122 27 87 47 129 126 129 243 0 117 -42 196 -129 243 -40 22 -61 27
-122 27 -51 0 -87 -6 -114 -19z m191 -96 c43 -28 67 -96 62 -176 -4 -73 -20
-104 -71 -143 -40 -29 -107 -26 -151 8 -66 50 -84 185 -35 265 41 68 129 89
195 46z"/>
<path d="M4835 1581 c-89 -41 -140 -133 -140 -251 0 -170 94 -269 254 -270 61
0 82 5 122 27 87 47 129 126 129 243 0 117 -42 196 -129 243 -40 22 -61 27
-122 27 -51 0 -87 -6 -114 -19z m191 -96 c43 -28 67 -96 62 -176 -4 -73 -20
-104 -71 -143 -40 -29 -107 -26 -151 8 -66 50 -84 185 -35 265 41 68 129 89
195 46z"/>
<path d="M7489 1577 c-53 -28 -104 -92 -120 -150 -6 -23 -9 -79 -7 -124 4 -69
9 -89 34 -130 16 -26 49 -61 73 -78 38 -27 52 -30 129 -33 80 -3 90 -2 124 22
l38 25 6 -24 c5 -21 12 -25 45 -25 l39 0 0 145 0 145 -120 0 -120 0 0 -40 0
-40 69 0 70 0 -10 -32 c-27 -95 -152 -123 -221 -51 -36 38 -48 73 -48 144 0
110 52 179 136 179 25 0 55 -5 67 -11 29 -15 56 -50 57 -71 0 -15 9 -18 56
-18 l56 0 -7 38 c-9 49 -51 102 -105 130 -63 32 -179 31 -241 -1z"/>
<path d="M1280 1576 c0 -3 43 -72 95 -155 l95 -150 0 -106 0 -105 55 0 55 0 0
101 0 101 86 137 c48 75 93 146 102 159 l14 22 -64 0 -65 0 -58 -100 c-33 -55
-61 -100 -65 -100 -3 0 -32 45 -65 100 l-60 100 -62 0 c-35 0 -63 -2 -63 -4z"/>
<path d="M2360 1413 c0 -93 5 -188 11 -212 23 -100 84 -140 213 -141 102 0
155 23 191 84 24 42 25 48 25 239 l0 197 -50 0 -50 0 -1 -147 c0 -166 -9 -237
-31 -259 -24 -24 -86 -34 -127 -21 -62 20 -71 53 -71 255 l0 172 -55 0 -55 0
0 -167z"/>
<path d="M2900 1320 l0 -260 55 0 55 0 0 105 0 105 84 0 c78 0 86 -2 104 -24
13 -17 21 -48 25 -95 3 -39 9 -76 12 -81 6 -10 125 -15 125 -5 0 2 -7 19 -15
37 -7 18 -17 64 -20 102 -6 54 -12 74 -31 93 -20 20 -21 25 -9 30 46 17 62
149 24 197 -40 50 -64 56 -244 56 l-165 0 0 -260z m290 167 c20 -10 26 -21 28
-54 4 -59 -19 -73 -125 -73 l-83 0 0 70 0 70 78 0 c42 0 88 -6 102 -13z"/>
<path d="M3690 1320 l0 -260 55 0 55 0 0 88 c0 84 1 89 29 116 16 16 33 26 38
23 4 -3 42 -55 83 -116 l75 -111 68 0 c37 0 67 2 67 5 0 3 -50 73 -110 157
l-111 152 103 103 103 103 -70 0 -70 0 -102 -102 -103 -103 0 103 0 102 -55 0
-55 0 0 -260z"/>
<path d="M4190 1320 l0 -260 50 0 50 0 2 172 3 172 109 -172 109 -172 53 0 54
0 0 260 0 260 -50 0 -50 0 -2 -171 -3 -171 -106 168 -106 169 -56 3 -57 3 0
-261z"/>
<path d="M5230 1573 c0 -5 31 -120 68 -258 l67 -250 55 -3 55 -3 34 128 c19
70 41 151 49 178 l15 50 47 -175 47 -175 54 -3 54 -3 69 248 c38 136 71 254
74 261 3 10 -9 12 -54 10 l-58 -3 -40 -162 c-22 -90 -43 -163 -46 -163 -3 0
-20 60 -39 133 -58 224 -44 198 -108 195 l-56 -3 -47 -173 -46 -173 -34 143
c-54 230 -42 208 -105 208 -30 0 -55 -3 -55 -7z"/>
<path d="M5960 1320 l0 -260 185 0 185 0 0 50 0 50 -130 0 -130 0 0 210 0 210
-55 0 -55 0 0 -260z"/>
<path d="M6390 1320 l0 -260 195 0 195 0 0 50 0 50 -140 0 -140 0 0 65 0 65
130 0 130 0 0 45 0 45 -130 0 -130 0 0 55 0 55 140 0 140 0 0 45 0 45 -195 0
-195 0 0 -260z"/>
<path d="M6850 1319 l0 -262 144 5 c126 4 150 8 193 29 64 32 101 86 115 171
22 134 -22 250 -112 296 -40 20 -59 22 -192 22 l-148 0 0 -261z m277 157 c53
-27 68 -60 68 -146 -1 -129 -41 -170 -170 -170 l-65 0 0 171 0 172 68 -5 c37
-3 82 -13 99 -22z"/>
<path d="M7930 1320 l0 -260 195 0 195 0 0 50 0 50 -140 0 -140 0 0 65 0 65
130 0 130 0 0 45 0 45 -130 0 -130 0 0 55 0 55 140 0 140 0 0 45 0 45 -195 0
-195 0 0 -260z"/>
</g>
</svg>
